<?xml version="1.0" encoding="UTF-8" standalone="no"?>
<!-- Created with Inkscape (http://www.inkscape.org/) -->

<svg
   width="2.5246735mm"
   height="3.0193963mm"
   viewBox="0 0 2.5246735 3.0193963"
   version="1.1"
   id="svg5"
   xmlns="http://www.w3.org/2000/svg"
   xmlns:svg="http://www.w3.org/2000/svg">
  <defs
     id="defs2" />
  <g
     id="layer3"
     transform="translate(-18.083537,-4.2711605)">
    <rect
       style="fill:#000000;stroke-width:0.264583"
       id="rect1082"
       width="0.52743369"
       height="2.4507637"
       x="20.080778"
       y="4.8397927"
       rx="0.2" />
    <rect
       style="fill:#000000;stroke-width:0.264583"
       id="rect1082-5"
       width="0.52743369"
       height="2.4507637"
       x="18.083538"
       y="4.8096247"
       rx="0.2" />
  </g>
  <g
     id="layer2"
     transform="translate(-18.083537,-4.2711605)">
    <rect
       style="fill:#17280b;stroke-width:0.264583"
       id="rect871"
       width="2.02473"
       height="2.0039065"
       x="18.341017"
       y="5.1066904"
       rx="0.2" />
  </g>
  <g
     id="layer1"
     transform="translate(-18.083537,-4.2711605)">
    <path
       style="fill:#808000;stroke-width:0.264583"
       id="path685"
       d="m 18.260945,6.3740899 c -0.07276,-0.00213 -0.602613,-0.2767116 -0.646311,-0.3349301 -0.0437,-0.058219 -0.159381,-0.6436683 -0.14111,-0.7141319 0.01827,-0.070464 0.403868,-0.5259297 0.470351,-0.5555778 0.06648,-0.029648 0.662995,-0.012155 0.727626,0.021338 0.06463,0.033493 0.422875,0.5107723 0.436986,0.5821855 0.01411,0.071413 -0.13568,0.6490779 -0.182715,0.7046357 -0.04703,0.055558 -0.592065,0.2986146 -0.664827,0.2964809 z"
       transform="translate(1.0539033,0.53553396)" />
    <rect
       style="fill:#22241c;stroke-width:0.264583"
       id="rect739"
       width="0.34972864"
       height="1.1360397"
       x="19.172771"
       y="4.2711606"
       rx="0.1" />
  </g>
</svg>
